<svg width="296" height="386" xmlns="http://www.w3.org/2000/svg" xmlns:xlink="http://www.w3.org/1999/xlink"><defs><path id="a" d="M0 0h98.11v99.043H0z"/></defs><g fill="none" fill-rule="evenodd"><g transform="translate(0 131.091)"><mask id="b" fill="#fff"><use xlink:href="#a"/></mask><path d="M49.067 0C21.97 0 0 22.168 0 49.522c0 27.35 21.971 49.52 49.068 49.52 27.072 0 49.044-22.17 49.044-49.52C98.11 22.168 76.139 0 49.067 0" fill="#52D7A5" mask="url(#b)"/></g><path d="M111.135 245.928c14.178 0 25.645 11.492 25.645 25.677 0 14.157-11.467 25.647-25.645 25.647-14.181 0-25.648-11.49-25.648-25.647 0-14.185 11.467-25.677 25.648-25.677zm5.42 34.405h-11.11c-2.032 0-2.78.747-2.78 1.667s.747 1.667 2.78 1.667h11.11c2.032 0 2.778-.747 2.778-1.667s-.745-1.667-2.777-1.667zM101 267a3.333 3.333 0 100 6.666 3.333 3.333 0 000-6.666zm20 0a3.334 3.334 0 100 6.668 3.334 3.334 0 000-6.668z" fill="#CFD8DF"/><path d="M98.833 0c28.627 0 51.838 23.469 51.838 52.393 0 28.948-23.21 52.394-51.838 52.394-28.606 0-51.815-23.446-51.815-52.394C47.018 23.47 70.227 0 98.833 0zm20.598 70.4a3.792 3.792 0 00-5.317.41c-3.561 4.13-8.371 6.176-14.735 6.176-6.363 0-11.174-2.046-14.734-6.175a3.792 3.792 0 00-5.318-.41 3.722 3.722 0 00-.414 5.276c5.044 5.85 11.967 8.794 20.466 8.794s15.422-2.944 20.466-8.794a3.722 3.722 0 00-.414-5.277zM78.007 41.7c-5.901 0-10.686 5.723-10.686 11.189 0 5.979 5.343.244 10.686 0 5.343.244 10.686 5.979 10.686 0 0-5.466-4.784-11.188-10.686-11.188zm42.744 0c-5.902 0-10.686 5.723-10.686 11.189 0 5.979 5.343.244 10.686 0 5.343.244 10.686 5.979 10.686 0 0-5.466-4.784-11.188-10.686-11.188z" fill="#FFD99C"/><path d="M227.076 104.787c38.036 0 68.924 31.115 68.924 69.5 0 38.387-30.888 69.502-68.924 69.502-38.062 0-68.924-31.115-68.924-69.502 0-38.385 30.862-69.5 68.924-69.5zm20.34 33.147c-5.181 0-9.927 1.644-14.104 4.888-2.108 1.638-4.018 3.641-5.702 5.98-1.683-2.338-3.594-4.342-5.702-5.98-4.177-3.244-8.922-4.888-14.104-4.888-6.932 0-13.308 2.787-17.955 7.848-4.59 5.001-7.12 11.834-7.12 19.24 0 7.624 2.83 14.602 8.903 21.962 5.433 6.583 13.243 13.266 22.286 21.005 3.088 2.643 6.588 5.638 10.222 8.829a5.25 5.25 0 006.939.001c3.634-3.191 7.136-6.188 10.226-8.832 9.041-7.738 16.85-14.42 22.284-21.004 6.074-7.36 8.902-14.337 8.902-21.961 0-7.406-2.53-14.239-7.12-19.24-4.647-5.061-11.023-7.848-17.955-7.848z" fill="#FC7B87"/><path d="M208.777 281.213c13.96 0 25.9 5.153 35.919 15.405 9.973 10.255 14.972 22.684 14.972 37.29 0 14.416-4.951 26.7-14.827 36.833-9.898 10.182-21.72 15.259-35.486 15.259-14.152 0-26.213-5.175-36.209-15.548-9.97-10.35-14.994-22.928-14.994-37.729 0-14.194 4.951-26.334 14.85-36.417 9.9-10.038 21.791-15.093 35.775-15.093zm.133 20.316l-9.579 19.42-21.418 3.115 15.498 15.116-3.658 21.345 19.157-10.078 19.157 10.078-3.659-21.345 15.499-15.116-21.419-3.115-9.578-19.42z" fill="#00A5C9"/><path d="M68 164h9.692a2 2 0 100-4H68a2 2 0 100 4zm-46 0h36.902a2 2 0 100-4H22a2 2 0 100 4zm46 30h9.692a2 2 0 100-4H68a2 2 0 100 4zm-46 0h36.902a2 2 0 100-4H22a2 2 0 100 4zm9.63-10H22a2 2 0 110-4h9.63a2 2 0 110 4zm46.354 0H41.016A2.008 2.008 0 0139 182c0-1.105.903-2 2.016-2h36.968c1.113 0 2.016.895 2.016 2s-.903 2-2.016 2zm-55.95-10h55.932c1.123 0 2.034-.895 2.034-2s-.91-2-2.034-2H22.034c-1.123 0-2.034.895-2.034 2s.91 2 2.034 2zM22 204h21.379a2 2 0 100-4H22a2 2 0 100 4zm29.697 0h4.242a2 2 0 100-4h-4.242a2 2 0 100 4z" fill="#FFF" fill-rule="nonzero"/></g></svg>